<mxfile host="app.diagrams.net" modified="2024-06-18T13:01:30.824Z" agent="Mozilla/5.0 (Macintosh; Intel Mac OS X 10_15_7) AppleWebKit/537.36 (KHTML, like Gecko) Chrome/125.0.0.0 Safari/537.36" etag="iiN6K6CIwdvQbh5PNwGs" version="24.5.5" type="github">
  <diagram id="C5RBs43oDa-KdzZeNtuy" name="Page-1">
    <mxGraphModel dx="3185" dy="2462" grid="1" gridSize="10" guides="1" tooltips="1" connect="1" arrows="1" fold="1" page="1" pageScale="1" pageWidth="827" pageHeight="1169" math="0" shadow="0">
      <root>
        <mxCell id="WIyWlLk6GJQsqaUBKTNV-0" />
        <mxCell id="WIyWlLk6GJQsqaUBKTNV-1" parent="WIyWlLk6GJQsqaUBKTNV-0" />
        <mxCell id="WIyWlLk6GJQsqaUBKTNV-2" value="" style="rounded=0;html=1;jettySize=auto;orthogonalLoop=1;fontSize=11;endArrow=block;endFill=0;endSize=8;strokeWidth=1;shadow=0;labelBackgroundColor=none;edgeStyle=orthogonalEdgeStyle;entryX=0.5;entryY=0;entryDx=0;entryDy=0;" parent="WIyWlLk6GJQsqaUBKTNV-1" source="WIyWlLk6GJQsqaUBKTNV-3" target="FuXbrmBLPBqFzTa1z7kv-0" edge="1">
          <mxGeometry relative="1" as="geometry" />
        </mxCell>
        <mxCell id="FuXbrmBLPBqFzTa1z7kv-37" style="edgeStyle=orthogonalEdgeStyle;rounded=0;orthogonalLoop=1;jettySize=auto;html=1;exitX=1;exitY=0.5;exitDx=0;exitDy=0;" edge="1" parent="WIyWlLk6GJQsqaUBKTNV-1" source="WIyWlLk6GJQsqaUBKTNV-3" target="FuXbrmBLPBqFzTa1z7kv-22">
          <mxGeometry relative="1" as="geometry" />
        </mxCell>
        <mxCell id="WIyWlLk6GJQsqaUBKTNV-3" value="schedule调用storage：&lt;br&gt;/replayResult&lt;br&gt;获取录制回放数据" style="rounded=1;whiteSpace=wrap;html=1;fontSize=12;glass=0;strokeWidth=1;shadow=0;" parent="WIyWlLk6GJQsqaUBKTNV-1" vertex="1">
          <mxGeometry x="10" y="-10" width="150" height="60" as="geometry" />
        </mxCell>
        <mxCell id="WIyWlLk6GJQsqaUBKTNV-4" value="Yes" style="rounded=0;html=1;jettySize=auto;orthogonalLoop=1;fontSize=11;endArrow=block;endFill=0;endSize=8;strokeWidth=1;shadow=0;labelBackgroundColor=none;edgeStyle=orthogonalEdgeStyle;entryX=0.461;entryY=0.014;entryDx=0;entryDy=0;entryPerimeter=0;" parent="WIyWlLk6GJQsqaUBKTNV-1" source="WIyWlLk6GJQsqaUBKTNV-6" target="WIyWlLk6GJQsqaUBKTNV-11" edge="1">
          <mxGeometry y="20" relative="1" as="geometry">
            <mxPoint as="offset" />
            <mxPoint x="90" y="330" as="targetPoint" />
          </mxGeometry>
        </mxCell>
        <mxCell id="WIyWlLk6GJQsqaUBKTNV-5" value="No" style="edgeStyle=orthogonalEdgeStyle;rounded=0;html=1;jettySize=auto;orthogonalLoop=1;fontSize=11;endArrow=block;endFill=0;endSize=8;strokeWidth=1;shadow=0;labelBackgroundColor=none;" parent="WIyWlLk6GJQsqaUBKTNV-1" source="WIyWlLk6GJQsqaUBKTNV-6" target="WIyWlLk6GJQsqaUBKTNV-7" edge="1">
          <mxGeometry y="10" relative="1" as="geometry">
            <mxPoint as="offset" />
          </mxGeometry>
        </mxCell>
        <mxCell id="WIyWlLk6GJQsqaUBKTNV-6" value="agentVersion&amp;gt;=&lt;br&gt;qconfigAgentVersion" style="rhombus;whiteSpace=wrap;html=1;shadow=0;fontFamily=Helvetica;fontSize=12;align=center;strokeWidth=1;spacing=6;spacingTop=-4;" parent="WIyWlLk6GJQsqaUBKTNV-1" vertex="1">
          <mxGeometry x="5" y="240" width="160" height="110" as="geometry" />
        </mxCell>
        <mxCell id="FuXbrmBLPBqFzTa1z7kv-28" value="" style="edgeStyle=orthogonalEdgeStyle;rounded=0;orthogonalLoop=1;jettySize=auto;html=1;" edge="1" parent="WIyWlLk6GJQsqaUBKTNV-1" source="WIyWlLk6GJQsqaUBKTNV-7" target="FuXbrmBLPBqFzTa1z7kv-27">
          <mxGeometry relative="1" as="geometry" />
        </mxCell>
        <mxCell id="WIyWlLk6GJQsqaUBKTNV-7" value="原逻辑，&lt;br&gt;redis中获取未做匹配关系的录制回放数据" style="rounded=1;whiteSpace=wrap;html=1;fontSize=12;glass=0;strokeWidth=1;shadow=0;" parent="WIyWlLk6GJQsqaUBKTNV-1" vertex="1">
          <mxGeometry x="200" y="410" width="190" height="80" as="geometry" />
        </mxCell>
        <mxCell id="FuXbrmBLPBqFzTa1z7kv-26" value="" style="edgeStyle=orthogonalEdgeStyle;rounded=0;orthogonalLoop=1;jettySize=auto;html=1;" edge="1" parent="WIyWlLk6GJQsqaUBKTNV-1" source="WIyWlLk6GJQsqaUBKTNV-11" target="FuXbrmBLPBqFzTa1z7kv-25">
          <mxGeometry relative="1" as="geometry" />
        </mxCell>
        <mxCell id="WIyWlLk6GJQsqaUBKTNV-11" value="新逻辑。&lt;br&gt;redis中获取agent匹配后的录制回放数据" style="rounded=1;whiteSpace=wrap;html=1;fontSize=12;glass=0;strokeWidth=1;shadow=0;" parent="WIyWlLk6GJQsqaUBKTNV-1" vertex="1">
          <mxGeometry x="-8.75" y="410" width="190" height="80" as="geometry" />
        </mxCell>
        <mxCell id="FuXbrmBLPBqFzTa1z7kv-3" style="edgeStyle=orthogonalEdgeStyle;rounded=0;orthogonalLoop=1;jettySize=auto;html=1;exitX=0.5;exitY=1;exitDx=0;exitDy=0;entryX=0.5;entryY=0;entryDx=0;entryDy=0;" edge="1" parent="WIyWlLk6GJQsqaUBKTNV-1" source="FuXbrmBLPBqFzTa1z7kv-0" target="FuXbrmBLPBqFzTa1z7kv-1">
          <mxGeometry relative="1" as="geometry" />
        </mxCell>
        <mxCell id="FuXbrmBLPBqFzTa1z7kv-0" value="从redis中获取回放时的agentVersion" style="rounded=1;whiteSpace=wrap;html=1;fontSize=12;glass=0;strokeWidth=1;shadow=0;" vertex="1" parent="WIyWlLk6GJQsqaUBKTNV-1">
          <mxGeometry x="-10" y="80" width="190" height="60" as="geometry" />
        </mxCell>
        <mxCell id="FuXbrmBLPBqFzTa1z7kv-4" style="edgeStyle=orthogonalEdgeStyle;rounded=0;orthogonalLoop=1;jettySize=auto;html=1;exitX=0.5;exitY=1;exitDx=0;exitDy=0;" edge="1" parent="WIyWlLk6GJQsqaUBKTNV-1" source="FuXbrmBLPBqFzTa1z7kv-1" target="WIyWlLk6GJQsqaUBKTNV-6">
          <mxGeometry relative="1" as="geometry" />
        </mxCell>
        <mxCell id="FuXbrmBLPBqFzTa1z7kv-1" value="qconfig中获取走新逻辑的agentVersion(configAgentVersion)" style="rounded=1;whiteSpace=wrap;html=1;fontSize=12;glass=0;strokeWidth=1;shadow=0;" vertex="1" parent="WIyWlLk6GJQsqaUBKTNV-1">
          <mxGeometry x="-10" y="160" width="190" height="60" as="geometry" />
        </mxCell>
        <mxCell id="FuXbrmBLPBqFzTa1z7kv-8" style="edgeStyle=orthogonalEdgeStyle;rounded=0;orthogonalLoop=1;jettySize=auto;html=1;exitX=0.5;exitY=1;exitDx=0;exitDy=0;entryX=0.5;entryY=0;entryDx=0;entryDy=0;" edge="1" parent="WIyWlLk6GJQsqaUBKTNV-1" source="FuXbrmBLPBqFzTa1z7kv-5" target="FuXbrmBLPBqFzTa1z7kv-6">
          <mxGeometry relative="1" as="geometry" />
        </mxCell>
        <mxCell id="FuXbrmBLPBqFzTa1z7kv-20" value="" style="edgeStyle=orthogonalEdgeStyle;rounded=0;orthogonalLoop=1;jettySize=auto;html=1;" edge="1" parent="WIyWlLk6GJQsqaUBKTNV-1" source="FuXbrmBLPBqFzTa1z7kv-5" target="FuXbrmBLPBqFzTa1z7kv-19">
          <mxGeometry relative="1" as="geometry" />
        </mxCell>
        <mxCell id="FuXbrmBLPBqFzTa1z7kv-5" value="agent调用storage：&lt;br&gt;/batchSaveReplayResult&lt;br&gt;批量保存匹配后的录制回放数据" style="rounded=1;whiteSpace=wrap;html=1;fontSize=12;glass=0;strokeWidth=1;shadow=0;" vertex="1" parent="WIyWlLk6GJQsqaUBKTNV-1">
          <mxGeometry x="-420" y="-15" width="180" height="70" as="geometry" />
        </mxCell>
        <mxCell id="FuXbrmBLPBqFzTa1z7kv-9" style="edgeStyle=orthogonalEdgeStyle;rounded=0;orthogonalLoop=1;jettySize=auto;html=1;exitX=0.5;exitY=1;exitDx=0;exitDy=0;" edge="1" parent="WIyWlLk6GJQsqaUBKTNV-1" source="FuXbrmBLPBqFzTa1z7kv-6" target="FuXbrmBLPBqFzTa1z7kv-7">
          <mxGeometry relative="1" as="geometry" />
        </mxCell>
        <mxCell id="FuXbrmBLPBqFzTa1z7kv-6" value="&lt;div&gt;将录制回放数据放到redis里&lt;/div&gt;" style="rounded=1;whiteSpace=wrap;html=1;fontSize=12;glass=0;strokeWidth=1;shadow=0;" vertex="1" parent="WIyWlLk6GJQsqaUBKTNV-1">
          <mxGeometry x="-420" y="90" width="180" height="70" as="geometry" />
        </mxCell>
        <mxCell id="FuXbrmBLPBqFzTa1z7kv-7" value="将回放的agent version放到redis里" style="rounded=1;whiteSpace=wrap;html=1;fontSize=12;glass=0;strokeWidth=1;shadow=0;" vertex="1" parent="WIyWlLk6GJQsqaUBKTNV-1">
          <mxGeometry x="-420" y="190" width="180" height="70" as="geometry" />
        </mxCell>
        <mxCell id="FuXbrmBLPBqFzTa1z7kv-16" value="" style="edgeStyle=orthogonalEdgeStyle;rounded=0;orthogonalLoop=1;jettySize=auto;html=1;" edge="1" parent="WIyWlLk6GJQsqaUBKTNV-1" source="FuXbrmBLPBqFzTa1z7kv-14" target="FuXbrmBLPBqFzTa1z7kv-15">
          <mxGeometry relative="1" as="geometry" />
        </mxCell>
        <mxCell id="FuXbrmBLPBqFzTa1z7kv-14" value="schedule发起：&lt;br&gt;send replay request" style="rounded=1;whiteSpace=wrap;html=1;" vertex="1" parent="WIyWlLk6GJQsqaUBKTNV-1">
          <mxGeometry x="-790" y="-10" width="120" height="60" as="geometry" />
        </mxCell>
        <mxCell id="FuXbrmBLPBqFzTa1z7kv-17" value="" style="edgeStyle=orthogonalEdgeStyle;rounded=0;orthogonalLoop=1;jettySize=auto;html=1;" edge="1" parent="WIyWlLk6GJQsqaUBKTNV-1" source="FuXbrmBLPBqFzTa1z7kv-15" target="FuXbrmBLPBqFzTa1z7kv-5">
          <mxGeometry relative="1" as="geometry" />
        </mxCell>
        <mxCell id="FuXbrmBLPBqFzTa1z7kv-15" value="agent调用storage：&lt;br&gt;/queryMockers&lt;br&gt;回放" style="rounded=1;whiteSpace=wrap;html=1;" vertex="1" parent="WIyWlLk6GJQsqaUBKTNV-1">
          <mxGeometry x="-610" y="-10" width="130" height="60" as="geometry" />
        </mxCell>
        <mxCell id="FuXbrmBLPBqFzTa1z7kv-21" value="" style="edgeStyle=orthogonalEdgeStyle;rounded=0;orthogonalLoop=1;jettySize=auto;html=1;" edge="1" parent="WIyWlLk6GJQsqaUBKTNV-1" source="FuXbrmBLPBqFzTa1z7kv-19" target="WIyWlLk6GJQsqaUBKTNV-3">
          <mxGeometry relative="1" as="geometry" />
        </mxCell>
        <mxCell id="FuXbrmBLPBqFzTa1z7kv-19" value="回放结束" style="rounded=1;whiteSpace=wrap;html=1;" vertex="1" parent="WIyWlLk6GJQsqaUBKTNV-1">
          <mxGeometry x="-200" y="-10" width="120" height="60" as="geometry" />
        </mxCell>
        <mxCell id="FuXbrmBLPBqFzTa1z7kv-29" value="" style="edgeStyle=orthogonalEdgeStyle;rounded=0;orthogonalLoop=1;jettySize=auto;html=1;" edge="1" parent="WIyWlLk6GJQsqaUBKTNV-1" source="FuXbrmBLPBqFzTa1z7kv-22" target="FuXbrmBLPBqFzTa1z7kv-24">
          <mxGeometry relative="1" as="geometry" />
        </mxCell>
        <mxCell id="FuXbrmBLPBqFzTa1z7kv-22" value="schedule做&lt;br&gt;compare" style="rounded=1;whiteSpace=wrap;html=1;" vertex="1" parent="WIyWlLk6GJQsqaUBKTNV-1">
          <mxGeometry x="430" y="-10" width="140" height="60" as="geometry" />
        </mxCell>
        <mxCell id="FuXbrmBLPBqFzTa1z7kv-32" value="" style="edgeStyle=orthogonalEdgeStyle;rounded=0;orthogonalLoop=1;jettySize=auto;html=1;" edge="1" parent="WIyWlLk6GJQsqaUBKTNV-1" source="FuXbrmBLPBqFzTa1z7kv-24" target="FuXbrmBLPBqFzTa1z7kv-31">
          <mxGeometry relative="1" as="geometry" />
        </mxCell>
        <mxCell id="FuXbrmBLPBqFzTa1z7kv-35" value="yes" style="edgeLabel;html=1;align=center;verticalAlign=middle;resizable=0;points=[];" vertex="1" connectable="0" parent="FuXbrmBLPBqFzTa1z7kv-32">
          <mxGeometry x="-0.5356" y="1" relative="1" as="geometry">
            <mxPoint as="offset" />
          </mxGeometry>
        </mxCell>
        <mxCell id="FuXbrmBLPBqFzTa1z7kv-34" style="edgeStyle=orthogonalEdgeStyle;rounded=0;orthogonalLoop=1;jettySize=auto;html=1;exitX=1;exitY=0.5;exitDx=0;exitDy=0;entryX=1;entryY=0.5;entryDx=0;entryDy=0;" edge="1" parent="WIyWlLk6GJQsqaUBKTNV-1" source="FuXbrmBLPBqFzTa1z7kv-24" target="FuXbrmBLPBqFzTa1z7kv-30">
          <mxGeometry relative="1" as="geometry" />
        </mxCell>
        <mxCell id="FuXbrmBLPBqFzTa1z7kv-36" value="no" style="edgeLabel;html=1;align=center;verticalAlign=middle;resizable=0;points=[];" vertex="1" connectable="0" parent="FuXbrmBLPBqFzTa1z7kv-34">
          <mxGeometry x="-0.5869" y="1" relative="1" as="geometry">
            <mxPoint as="offset" />
          </mxGeometry>
        </mxCell>
        <mxCell id="FuXbrmBLPBqFzTa1z7kv-24" value="!needMatch" style="rhombus;whiteSpace=wrap;html=1;shadow=0;fontFamily=Helvetica;fontSize=12;align=center;strokeWidth=1;spacing=6;spacingTop=-4;" vertex="1" parent="WIyWlLk6GJQsqaUBKTNV-1">
          <mxGeometry x="422" y="85" width="156" height="80" as="geometry" />
        </mxCell>
        <mxCell id="FuXbrmBLPBqFzTa1z7kv-25" value="输出needMatch=false" style="rounded=1;whiteSpace=wrap;html=1;glass=0;strokeWidth=1;shadow=0;" vertex="1" parent="WIyWlLk6GJQsqaUBKTNV-1">
          <mxGeometry x="26.25" y="525" width="120" height="60" as="geometry" />
        </mxCell>
        <mxCell id="FuXbrmBLPBqFzTa1z7kv-27" value="输出needMatch=true" style="rounded=1;whiteSpace=wrap;html=1;glass=0;strokeWidth=1;shadow=0;" vertex="1" parent="WIyWlLk6GJQsqaUBKTNV-1">
          <mxGeometry x="235" y="525" width="120" height="60" as="geometry" />
        </mxCell>
        <mxCell id="FuXbrmBLPBqFzTa1z7kv-30" value="compare" style="rounded=1;whiteSpace=wrap;html=1;glass=0;strokeWidth=1;shadow=0;" vertex="1" parent="WIyWlLk6GJQsqaUBKTNV-1">
          <mxGeometry x="440" y="320" width="120" height="60" as="geometry" />
        </mxCell>
        <mxCell id="FuXbrmBLPBqFzTa1z7kv-33" value="" style="edgeStyle=orthogonalEdgeStyle;rounded=0;orthogonalLoop=1;jettySize=auto;html=1;" edge="1" parent="WIyWlLk6GJQsqaUBKTNV-1" source="FuXbrmBLPBqFzTa1z7kv-31" target="FuXbrmBLPBqFzTa1z7kv-30">
          <mxGeometry relative="1" as="geometry" />
        </mxCell>
        <mxCell id="FuXbrmBLPBqFzTa1z7kv-31" value="原逻辑&lt;br&gt;录制和回放数据做匹配" style="rounded=1;whiteSpace=wrap;html=1;glass=0;strokeWidth=1;shadow=0;" vertex="1" parent="WIyWlLk6GJQsqaUBKTNV-1">
          <mxGeometry x="440" y="210" width="120" height="60" as="geometry" />
        </mxCell>
      </root>
    </mxGraphModel>
  </diagram>
</mxfile>
